<svg xmlns="http://www.w3.org/2000/svg" xmlns:xlink="http://www.w3.org/1999/xlink" width="2048" height="888" viewBox="0 0 2048 888">
  <defs>
    <clipPath id="clip-sprite">
      <rect width="2048" height="888"/>
    </clipPath>
  </defs>
  <g id="sprite" clip-path="url(#clip-sprite)">
    <path id="check-1" d="M3.241,13.577a.727.727,0,1,0-1.028,1.028L7.3,19.7a.727.727,0,0,0,1.028,0l9.455-9.455a.727.727,0,1,0-1.028-1.028l-8.94,8.94Z" transform="translate(114 67)" fill="#7dd580"/>
    <g id="Grupo_10459" data-name="Grupo 10459" transform="translate(157 70.617)">
      <g id="Grupo_1846" data-name="Grupo 1846" transform="translate(0 0.499)">
        <g id="Grupo_1844" data-name="Grupo 1844" transform="translate(0 0)">
          <g id="Grupo_1843" data-name="Grupo 1843">
            <path id="Trazado_1322" data-name="Trazado 1322" d="M489.807,315.893a12.842,12.842,0,0,1-11.626-7.274,1.239,1.239,0,0,1,0-1.085,12.927,12.927,0,0,1,23.251,0,1.239,1.239,0,0,1,0,1.085A12.843,12.843,0,0,1,489.807,315.893Zm-9.113-7.817a10.448,10.448,0,0,0,18.226,0,10.448,10.448,0,0,0-18.226,0Z" transform="translate(-478.056 -300.259)" fill="#6868ef"/>
          </g>
        </g>
        <g id="Grupo_1845" data-name="Grupo 1845" transform="translate(7.288 3.354)">
          <path id="Trazado_1323" data-name="Trazado 1323" d="M505.888,319.94a4.463,4.463,0,1,1,4.463-4.463A4.468,4.468,0,0,1,505.888,319.94Zm0-6.447a1.984,1.984,0,1,0,1.983,1.984A1.986,1.986,0,0,0,505.888,313.494Z" transform="translate(-501.425 -311.014)" fill="#6868ef"/>
        </g>
      </g>
    </g>
    <g id="Grupo_10460" data-name="Grupo 10460" transform="translate(-561 -441)">
      <g id="Grupo_10453" data-name="Grupo 10453" transform="translate(764 511.501)">
        <g id="Grupo_1846-2" data-name="Grupo 1846" transform="translate(0 0.499)">
          <g id="Grupo_1844-2" data-name="Grupo 1844" transform="translate(0 0)">
            <g id="Grupo_1843-2" data-name="Grupo 1843">
              <path id="Trazado_1322-2" data-name="Trazado 1322" d="M489.807,315.893a12.842,12.842,0,0,1-11.626-7.274,1.239,1.239,0,0,1,0-1.085,12.927,12.927,0,0,1,23.251,0,1.239,1.239,0,0,1,0,1.085A12.843,12.843,0,0,1,489.807,315.893Zm-9.113-7.817a10.448,10.448,0,0,0,18.226,0,10.448,10.448,0,0,0-18.226,0Z" transform="translate(-478.056 -300.259)" fill="#6868ef"/>
            </g>
          </g>
          <g id="Grupo_1845-2" data-name="Grupo 1845" transform="translate(7.288 3.354)">
            <path id="Trazado_1323-2" data-name="Trazado 1323" d="M505.888,319.94a4.463,4.463,0,1,1,4.463-4.463A4.468,4.468,0,0,1,505.888,319.94Zm0-6.447a1.984,1.984,0,1,0,1.983,1.984A1.986,1.986,0,0,0,505.888,313.494Z" transform="translate(-501.425 -311.014)" fill="#6868ef"/>
          </g>
        </g>
      </g>
      <g id="Grupo_10452" data-name="Grupo 10452" transform="translate(790.585 510.601)">
        <g id="Grupo_1842-3" data-name="Grupo 1842" transform="translate(4.133)">
          <path id="Trazado_1325" data-name="Trazado 1325" d="M504.929,299.845l-14.673,14.673a1.243,1.243,0,0,1-1.758-1.758l14.673-14.673a1.243,1.243,0,0,1,1.758,1.758Z" transform="translate(-515.858 -297.33)" fill="#6868ef"/>
        </g>
      </g>
    </g>
    <path id="union" d="M1484.25,673.4v-6.5h-6.5a.75.75,0,0,1,0-1.5h6.5v-6.5a.75.75,0,1,1,1.5,0v6.5h6.5a.75.75,0,0,1,0,1.5h-6.5v6.5a.75.75,0,1,1-1.5,0Z" transform="translate(-490.014 -1440.093) rotate(45)" fill="#fb5a7b"/>
    <g id="Grupo_10471" data-name="Grupo 10471">
      <g id="Grupo_77" data-name="Grupo 77" transform="translate(114 222)">
        <path id="Trazado_14" data-name="Trazado 14" d="M83.838,504.444a11.207,11.207,0,1,1,11.206-11.206A11.22,11.22,0,0,1,83.838,504.444Zm0-18.8a7.6,7.6,0,1,0,7.6,7.6A7.606,7.606,0,0,0,83.838,485.64Z" transform="translate(-66.336 -482.031)" fill="#525f7f"/>
        <path id="Trazado_15" data-name="Trazado 15" d="M57.474,563.8a1.8,1.8,0,0,1-1.656-2.519,18.9,18.9,0,0,1,34.71,0,1.8,1.8,0,1,1-3.314,1.429,15.292,15.292,0,0,0-28.081,0A1.8,1.8,0,0,1,57.474,563.8Z" transform="translate(-55.671 -524.687)" fill="#525f7f"/>
      </g>
      <path id="Trazado_14-2" data-name="Trazado 14" d="M80.2,497.175a7.572,7.572,0,1,1,7.572-7.572A7.581,7.581,0,0,1,80.2,497.175Zm0-12.705a5.133,5.133,0,1,0,5.133,5.133A5.139,5.139,0,0,0,80.2,484.47Z" transform="translate(75.622 -253.031)" fill="#525f7f" stroke="#525f7f" stroke-width="0.6"/>
      <path id="Trazado_15-2" data-name="Trazado 15" d="M56.889,559.286a1.219,1.219,0,0,1-1.119-1.7,12.771,12.771,0,0,1,23.452,0,1.219,1.219,0,1,1-2.239.965,10.332,10.332,0,0,0-18.974,0A1.219,1.219,0,0,1,56.889,559.286Z" transform="translate(88.33 -303.855)" fill="#525f7f" stroke="#525f7f" stroke-width="0.6"/>
    </g>
    <g id="Grupo_10472" data-name="Grupo 10472" transform="translate(107)">
      <g id="Grupo_77-2" data-name="Grupo 77" transform="translate(114 222)">
        <path id="Trazado_14-3" data-name="Trazado 14" d="M83.838,504.444a11.207,11.207,0,1,1,11.206-11.206A11.22,11.22,0,0,1,83.838,504.444Zm0-18.8a7.6,7.6,0,1,0,7.6,7.6A7.606,7.606,0,0,0,83.838,485.64Z" transform="translate(-66.336 -482.031)" fill="#fff"/>
        <path id="Trazado_15-3" data-name="Trazado 15" d="M57.474,563.8a1.8,1.8,0,0,1-1.656-2.519,18.9,18.9,0,0,1,34.71,0,1.8,1.8,0,1,1-3.314,1.429,15.292,15.292,0,0,0-28.081,0A1.8,1.8,0,0,1,57.474,563.8Z" transform="translate(-55.671 -524.687)" fill="#fff"/>
      </g>
      <path id="Trazado_14-4" data-name="Trazado 14" d="M80.2,497.175a7.572,7.572,0,1,1,7.572-7.572A7.581,7.581,0,0,1,80.2,497.175Zm0-12.705a5.133,5.133,0,1,0,5.133,5.133A5.139,5.139,0,0,0,80.2,484.47Z" transform="translate(75.622 -253.031)" fill="#fff" stroke="#fff" stroke-width="0.6"/>
      <path id="Trazado_15-4" data-name="Trazado 15" d="M56.889,559.286a1.219,1.219,0,0,1-1.119-1.7,12.771,12.771,0,0,1,23.452,0,1.219,1.219,0,1,1-2.239.965,10.332,10.332,0,0,0-18.974,0A1.219,1.219,0,0,1,56.889,559.286Z" transform="translate(88.33 -303.855)" fill="#fff" stroke="#fff" stroke-width="0.6"/>
    </g>
    <g id="Grupo_10467" data-name="Grupo 10467" transform="translate(-161 -175)">
      <g id="Grupo_59" data-name="Grupo 59" transform="translate(-519.334 -33.345)">
        <path id="Trazado_52" data-name="Trazado 52" d="M828.353,529.458h0l-9.41-5.433a2.533,2.533,0,0,0-3.8,2.193v10.865a2.507,2.507,0,0,0,1.267,2.194,2.507,2.507,0,0,0,2.531,0l9.41-5.433a2.532,2.532,0,0,0,0-4.385Zm-10.214,6.823v-9.263l8.022,4.632Z" transform="translate(-1.937 -1.744)" fill="#525f7f"/>
        <path id="Trazado_53" data-name="Trazado 53" d="M836.494,510.345h-32.1a4.066,4.066,0,0,0-4.061,4.061v31a4.066,4.066,0,0,0,4.061,4.06h32.1a4.065,4.065,0,0,0,4.059-4.06v-31A4.065,4.065,0,0,0,836.494,510.345Zm-17.548,32.043v4.084h-6.769v-4.084Zm2.994,0h6.769v4.084h-6.769Zm-18.612-2.994V520.419h34.23v18.974Zm18.612-21.969V513.34h6.769v4.084Zm-2.994,0h-6.769V513.34h6.769Zm18.612-3.018v3.018h-5.853V513.34h4.788A1.066,1.066,0,0,1,837.559,514.406Zm-34.23,0a1.067,1.067,0,0,1,1.067-1.066h4.788v4.084h-5.855Zm0,31v-3.019h5.855v4.084h-4.788A1.067,1.067,0,0,1,803.328,545.406Zm34.23,0a1.067,1.067,0,0,1-1.065,1.066h-4.788v-4.084h5.853Z" fill="#525f7f"/>
      </g>
    </g>
    <g id="Grupo_10477" data-name="Grupo 10477" transform="translate(-52 -175)">
      <g id="Grupo_59-2" data-name="Grupo 59" transform="translate(-519.334 -33.345)">
        <path id="Trazado_52-2" data-name="Trazado 52" d="M828.353,529.458h0l-9.41-5.433a2.533,2.533,0,0,0-3.8,2.193v10.865a2.507,2.507,0,0,0,1.267,2.194,2.507,2.507,0,0,0,2.531,0l9.41-5.433a2.532,2.532,0,0,0,0-4.385Zm-10.214,6.823v-9.263l8.022,4.632Z" transform="translate(-1.937 -1.744)" fill="#fff"/>
        <path id="Trazado_53-2" data-name="Trazado 53" d="M836.494,510.345h-32.1a4.066,4.066,0,0,0-4.061,4.061v31a4.066,4.066,0,0,0,4.061,4.06h32.1a4.065,4.065,0,0,0,4.059-4.06v-31A4.065,4.065,0,0,0,836.494,510.345Zm-17.548,32.043v4.084h-6.769v-4.084Zm2.994,0h6.769v4.084h-6.769Zm-18.612-2.994V520.419h34.23v18.974Zm18.612-21.969V513.34h6.769v4.084Zm-2.994,0h-6.769V513.34h6.769Zm18.612-3.018v3.018h-5.853V513.34h4.788A1.066,1.066,0,0,1,837.559,514.406Zm-34.23,0a1.067,1.067,0,0,1,1.067-1.066h4.788v4.084h-5.855Zm0,31v-3.019h5.855v4.084h-4.788A1.067,1.067,0,0,1,803.328,545.406Zm34.23,0a1.067,1.067,0,0,1-1.065,1.066h-4.788v-4.084h5.853Z" fill="#fff"/>
      </g>
    </g>
    <g id="Grupo_10466" data-name="Grupo 10466" transform="translate(0.5 -356)">
      <path id="Trazado_70" data-name="Trazado 70" d="M701.769,1385.4a4.266,4.266,0,0,0-2.364-7.277l-8.06-1.17a1.257,1.257,0,0,1-.943-.687l-3.6-7.3a4.266,4.266,0,0,0-7.651,0l-3.605,7.3a1.252,1.252,0,0,1-.942.685l-8.06,1.171a4.266,4.266,0,0,0-2.365,7.276l5.832,5.685a1.251,1.251,0,0,1,.36,1.108l-1.377,8.028a4.26,4.26,0,0,0,6.189,4.5l7.211-3.79a1.251,1.251,0,0,1,1.164,0l7.209,3.79a4.265,4.265,0,0,0,6.19-4.5l-1.377-8.029a1.251,1.251,0,0,1,.359-1.108Zm-7.936,3.527a4.268,4.268,0,0,0-1.227,3.776l1.377,8.028a1.252,1.252,0,0,1-1.817,1.32l-7.209-3.79a4.261,4.261,0,0,0-3.971,0l-7.21,3.79a1.252,1.252,0,0,1-1.816-1.32l1.376-8.027a4.264,4.264,0,0,0-1.227-3.777l-5.833-5.685a1.251,1.251,0,0,1,.694-2.135l8.06-1.172a4.264,4.264,0,0,0,3.211-2.333l3.605-7.3a1.253,1.253,0,0,1,2.246,0l3.6,7.3a4.268,4.268,0,0,0,3.212,2.335l8.061,1.171a1.251,1.251,0,0,1,.694,2.135Z" transform="translate(-543.383 -636.094)" fill="#525f7f" stroke="#525f7f" stroke-width="0.4"/>
    </g>
    <g id="Grupo_10476" data-name="Grupo 10476" transform="translate(109.5 -356)">
      <path id="Trazado_70-2" data-name="Trazado 70" d="M701.769,1385.4a4.266,4.266,0,0,0-2.364-7.277l-8.06-1.17a1.257,1.257,0,0,1-.943-.687l-3.6-7.3a4.266,4.266,0,0,0-7.651,0l-3.605,7.3a1.252,1.252,0,0,1-.942.685l-8.06,1.171a4.266,4.266,0,0,0-2.365,7.276l5.832,5.685a1.251,1.251,0,0,1,.36,1.108l-1.377,8.028a4.26,4.26,0,0,0,6.189,4.5l7.211-3.79a1.251,1.251,0,0,1,1.164,0l7.209,3.79a4.265,4.265,0,0,0,6.19-4.5l-1.377-8.029a1.251,1.251,0,0,1,.359-1.108Zm-7.936,3.527a4.268,4.268,0,0,0-1.227,3.776l1.377,8.028a1.252,1.252,0,0,1-1.817,1.32l-7.209-3.79a4.261,4.261,0,0,0-3.971,0l-7.21,3.79a1.252,1.252,0,0,1-1.816-1.32l1.376-8.027a4.264,4.264,0,0,0-1.227-3.777l-5.833-5.685a1.251,1.251,0,0,1,.694-2.135l8.06-1.172a4.264,4.264,0,0,0,3.211-2.333l3.605-7.3a1.253,1.253,0,0,1,2.246,0l3.6,7.3a4.268,4.268,0,0,0,3.212,2.335l8.061,1.171a1.251,1.251,0,0,1,.694,2.135Z" transform="translate(-543.383 -636.094)" fill="#fff" stroke="#fff" stroke-width="0.4"/>
    </g>
    <g id="Grupo_10468" data-name="Grupo 10468" transform="translate(-161 -283)">
      <g id="Grupo_91" data-name="Grupo 91" transform="translate(273 729)">
        <g id="Grupo_83" data-name="Grupo 83" transform="translate(12.354 0)">
          <g id="Grupo_80" data-name="Grupo 80" transform="translate(0 3.808)">
            <path id="Trazado_71" data-name="Trazado 71" d="M3778.41,1867.92a2.824,2.824,0,0,1-.292-.015l-25.7-2.648a2.8,2.8,0,0,1-1.779-4.664l.9-.988a10.061,10.061,0,0,0,2.558-5.712l.605-5.87a12.412,12.412,0,0,1,24.693,2.545l-.6,5.87a10.061,10.061,0,0,0,1.34,6.113l.681,1.151a2.8,2.8,0,0,1-2.4,4.219Zm-11.381-28.674a10.051,10.051,0,0,0-9.977,9.02l-.6,5.87a12.44,12.44,0,0,1-3.163,7.062l-.9.988a.431.431,0,0,0,.275.72l25.7,2.648a.431.431,0,0,0,.416-.649l-.68-1.151a12.443,12.443,0,0,1-1.657-7.559l.6-5.87a10.06,10.06,0,0,0-8.965-11.025A10.237,10.237,0,0,0,3767.029,1839.247Z" transform="translate(-3749.905 -1836.883)" fill="#525f7f" stroke="#525f7f" stroke-width="0.6"/>
          </g>
          <g id="Grupo_81" data-name="Grupo 81" transform="translate(13.72 35.14)">
            <path id="Trazado_72" data-name="Trazado 72" d="M3930.381,2238.538a10.711,10.711,0,0,1-5.865-1.846,1.182,1.182,0,0,1,1.4-1.907,8.372,8.372,0,0,0,2.292,1.06,7.05,7.05,0,0,0,5.049-.3,1.182,1.182,0,0,1,.981,2.151A9.2,9.2,0,0,1,3930.381,2238.538Z" transform="translate(-3924.033 -2234.557)" fill="#525f7f" stroke="#525f7f" stroke-width="0.6"/>
          </g>
          <g id="Grupo_82" data-name="Grupo 82" transform="translate(13.45)">
            <path id="Trazado_73" data-name="Trazado 73" d="M3929.085,1795.32a1.183,1.183,0,0,1-1.161-1.411c.016-.078.028-.157.036-.235a2.5,2.5,0,0,0-4.973-.512c-.008.079-.013.158-.014.236a1.181,1.181,0,0,1-1.181,1.171h-.011a1.182,1.182,0,0,1-1.171-1.193c0-.151.01-.3.026-.456a4.863,4.863,0,1,1,9.675,1c-.016.151-.039.3-.068.452A1.182,1.182,0,0,1,3929.085,1795.32Z" transform="translate(-3920.61 -1788.554)" fill="#525f7f" stroke="#525f7f" stroke-width="0.6"/>
          </g>
        </g>
        <g id="Grupo_90" data-name="Grupo 90" transform="translate(0 8.52)">
          <g id="Grupo_86" data-name="Grupo 86" transform="translate(0)">
            <g id="Grupo_84" data-name="Grupo 84">
              <path id="Trazado_74" data-name="Trazado 74" d="M3598.237,1918.762a1.178,1.178,0,0,1-.856-.367,15.475,15.475,0,0,1,0-21.343,1.182,1.182,0,1,1,1.712,1.63,13.111,13.111,0,0,0,0,18.083,1.182,1.182,0,0,1-.856,2Z" transform="translate(-3593.113 -1896.685)" fill="#525f7f" stroke="#525f7f" stroke-width="0.6"/>
            </g>
            <g id="Grupo_85" data-name="Grupo 85" transform="translate(6.325 4.928)">
              <path id="Trazado_75" data-name="Trazado 75" d="M3676.547,1971.455a1.179,1.179,0,0,1-.856-.367,8.327,8.327,0,0,1,0-11.487,1.182,1.182,0,0,1,1.711,1.63,5.964,5.964,0,0,0,0,8.226,1.182,1.182,0,0,1-.856,2Z" transform="translate(-3673.394 -1959.235)" fill="#525f7f" stroke="#525f7f" stroke-width="0.6"/>
            </g>
          </g>
          <g id="Grupo_89" data-name="Grupo 89" transform="translate(45.345)">
            <g id="Grupo_87" data-name="Grupo 87" transform="translate(4.354)">
              <path id="Trazado_76" data-name="Trazado 76" d="M4225.073,1918.762a1.182,1.182,0,0,1-.856-2,13.109,13.109,0,0,0,0-18.083,1.182,1.182,0,0,1,1.711-1.63,15.474,15.474,0,0,1,0,21.343A1.178,1.178,0,0,1,4225.073,1918.762Z" transform="translate(-4223.89 -1896.685)" fill="#525f7f" stroke="#525f7f" stroke-width="0.6"/>
            </g>
            <g id="Grupo_88" data-name="Grupo 88" transform="translate(0 4.928)">
              <path id="Trazado_77" data-name="Trazado 77" d="M4169.811,1971.455a1.182,1.182,0,0,1-.856-2,5.965,5.965,0,0,0,0-8.226,1.182,1.182,0,1,1,1.711-1.63,8.329,8.329,0,0,1,0,11.487A1.178,1.178,0,0,1,4169.811,1971.455Z" transform="translate(-4168.629 -1959.235)" fill="#525f7f" stroke="#525f7f" stroke-width="0.6"/>
            </g>
          </g>
        </g>
      </g>
    </g>
    <g id="Grupo_10475" data-name="Grupo 10475" transform="translate(-52 -283)">
      <g id="Grupo_91-2" data-name="Grupo 91" transform="translate(273 729)">
        <g id="Grupo_83-2" data-name="Grupo 83" transform="translate(12.354 0)">
          <g id="Grupo_80-2" data-name="Grupo 80" transform="translate(0 3.808)">
            <path id="Trazado_71-2" data-name="Trazado 71" d="M3778.41,1867.92a2.824,2.824,0,0,1-.292-.015l-25.7-2.648a2.8,2.8,0,0,1-1.779-4.664l.9-.988a10.061,10.061,0,0,0,2.558-5.712l.605-5.87a12.412,12.412,0,0,1,24.693,2.545l-.6,5.87a10.061,10.061,0,0,0,1.34,6.113l.681,1.151a2.8,2.8,0,0,1-2.4,4.219Zm-11.381-28.674a10.051,10.051,0,0,0-9.977,9.02l-.6,5.87a12.44,12.44,0,0,1-3.163,7.062l-.9.988a.431.431,0,0,0,.275.72l25.7,2.648a.431.431,0,0,0,.416-.649l-.68-1.151a12.443,12.443,0,0,1-1.657-7.559l.6-5.87a10.06,10.06,0,0,0-8.965-11.025A10.237,10.237,0,0,0,3767.029,1839.247Z" transform="translate(-3749.905 -1836.883)" fill="#fff" stroke="#fff" stroke-width="0.6"/>
          </g>
          <g id="Grupo_81-2" data-name="Grupo 81" transform="translate(13.72 35.14)">
            <path id="Trazado_72-2" data-name="Trazado 72" d="M3930.381,2238.538a10.711,10.711,0,0,1-5.865-1.846,1.182,1.182,0,0,1,1.4-1.907,8.372,8.372,0,0,0,2.292,1.06,7.05,7.05,0,0,0,5.049-.3,1.182,1.182,0,0,1,.981,2.151A9.2,9.2,0,0,1,3930.381,2238.538Z" transform="translate(-3924.033 -2234.557)" fill="#fff" stroke="#fff" stroke-width="0.6"/>
          </g>
          <g id="Grupo_82-2" data-name="Grupo 82" transform="translate(13.45)">
            <path id="Trazado_73-2" data-name="Trazado 73" d="M3929.085,1795.32a1.183,1.183,0,0,1-1.161-1.411c.016-.078.028-.157.036-.235a2.5,2.5,0,0,0-4.973-.512c-.008.079-.013.158-.014.236a1.181,1.181,0,0,1-1.181,1.171h-.011a1.182,1.182,0,0,1-1.171-1.193c0-.151.01-.3.026-.456a4.863,4.863,0,1,1,9.675,1c-.016.151-.039.3-.068.452A1.182,1.182,0,0,1,3929.085,1795.32Z" transform="translate(-3920.61 -1788.554)" fill="#fff" stroke="#fff" stroke-width="0.6"/>
          </g>
        </g>
        <g id="Grupo_90-2" data-name="Grupo 90" transform="translate(0 8.52)">
          <g id="Grupo_86-2" data-name="Grupo 86" transform="translate(0)">
            <g id="Grupo_84-2" data-name="Grupo 84">
              <path id="Trazado_74-2" data-name="Trazado 74" d="M3598.237,1918.762a1.178,1.178,0,0,1-.856-.367,15.475,15.475,0,0,1,0-21.343,1.182,1.182,0,1,1,1.712,1.63,13.111,13.111,0,0,0,0,18.083,1.182,1.182,0,0,1-.856,2Z" transform="translate(-3593.113 -1896.685)" fill="#fff" stroke="#fff" stroke-width="0.6"/>
            </g>
            <g id="Grupo_85-2" data-name="Grupo 85" transform="translate(6.325 4.928)">
              <path id="Trazado_75-2" data-name="Trazado 75" d="M3676.547,1971.455a1.179,1.179,0,0,1-.856-.367,8.327,8.327,0,0,1,0-11.487,1.182,1.182,0,0,1,1.711,1.63,5.964,5.964,0,0,0,0,8.226,1.182,1.182,0,0,1-.856,2Z" transform="translate(-3673.394 -1959.235)" fill="#fff" stroke="#fff" stroke-width="0.6"/>
            </g>
          </g>
          <g id="Grupo_89-2" data-name="Grupo 89" transform="translate(45.345)">
            <g id="Grupo_87-2" data-name="Grupo 87" transform="translate(4.354)">
              <path id="Trazado_76-2" data-name="Trazado 76" d="M4225.073,1918.762a1.182,1.182,0,0,1-.856-2,13.109,13.109,0,0,0,0-18.083,1.182,1.182,0,0,1,1.711-1.63,15.474,15.474,0,0,1,0,21.343A1.178,1.178,0,0,1,4225.073,1918.762Z" transform="translate(-4223.89 -1896.685)" fill="#fff" stroke="#fff" stroke-width="0.6"/>
            </g>
            <g id="Grupo_88-2" data-name="Grupo 88" transform="translate(0 4.928)">
              <path id="Trazado_77-2" data-name="Trazado 77" d="M4169.811,1971.455a1.182,1.182,0,0,1-.856-2,5.965,5.965,0,0,0,0-8.226,1.182,1.182,0,1,1,1.711-1.63,8.329,8.329,0,0,1,0,11.487A1.178,1.178,0,0,1,4169.811,1971.455Z" transform="translate(-4168.629 -1959.235)" fill="#fff" stroke="#fff" stroke-width="0.6"/>
            </g>
          </g>
        </g>
      </g>
    </g>
    <g id="Grupo_10469" data-name="Grupo 10469" transform="translate(1 -330)">
      <g id="Grupo_58" data-name="Grupo 58" transform="translate(-743.319 -4621.101)">
        <g id="Grupo_56" data-name="Grupo 56" transform="translate(871.039 5484.998)">
          <g id="Grupo_52" data-name="Grupo 52" transform="translate(0 0)">
            <path id="Trazado_46" data-name="Trazado 46" d="M950.389,5569.42h-8.431a1.321,1.321,0,1,1,0-2.642h8.431a1.321,1.321,0,1,1,0,2.642Z" transform="translate(-940.637 -5566.778)" fill="#525f7f" stroke="#525f7f" stroke-width="0.5"/>
          </g>
          <g id="Grupo_53" data-name="Grupo 53" transform="translate(0 6.78)">
            <path id="Trazado_47" data-name="Trazado 47" d="M963.018,5646.416H941.958a1.321,1.321,0,0,1,0-2.642h21.061a1.321,1.321,0,0,1,0,2.642Z" transform="translate(-940.637 -5643.774)" fill="#525f7f" stroke="#525f7f" stroke-width="0.5"/>
          </g>
          <g id="Grupo_54" data-name="Grupo 54" transform="translate(0 13.559)">
            <path id="Trazado_48" data-name="Trazado 48" d="M963.018,5723.413H941.958a1.321,1.321,0,1,1,0-2.642h21.061a1.321,1.321,0,1,1,0,2.642Z" transform="translate(-940.637 -5720.771)" fill="#525f7f" stroke="#525f7f" stroke-width="0.5"/>
          </g>
          <g id="Grupo_55" data-name="Grupo 55" transform="translate(0 20.339)">
            <path id="Trazado_49" data-name="Trazado 49" d="M963.018,5800.409H941.958a1.321,1.321,0,0,1,0-2.642h21.061a1.321,1.321,0,0,1,0,2.642Z" transform="translate(-940.637 -5797.767)" fill="#525f7f" stroke="#525f7f" stroke-width="0.5"/>
          </g>
        </g>
        <g id="Grupo_57" data-name="Grupo 57" transform="translate(864.319 5477.101)">
          <path id="Trazado_50" data-name="Trazado 50" d="M897.071,5515.874H868.709a4.394,4.394,0,0,1-4.39-4.39v-29.993a4.395,4.395,0,0,1,4.39-4.39h28.362a4.395,4.395,0,0,1,4.39,4.39v29.993A4.394,4.394,0,0,1,897.071,5515.874Zm-28.362-36.131a1.75,1.75,0,0,0-1.748,1.749v29.993a1.751,1.751,0,0,0,1.748,1.749h28.362a1.751,1.751,0,0,0,1.748-1.749v-29.993a1.75,1.75,0,0,0-1.748-1.749Z" transform="translate(-864.319 -5477.101)" fill="#525f7f" stroke="#525f7f" stroke-width="0.5"/>
        </g>
      </g>
    </g>
    <g id="Grupo_10474" data-name="Grupo 10474" transform="translate(110 -330)">
      <g id="Grupo_58-2" data-name="Grupo 58" transform="translate(-743.319 -4621.101)">
        <g id="Grupo_56-2" data-name="Grupo 56" transform="translate(871.039 5484.998)">
          <g id="Grupo_52-2" data-name="Grupo 52" transform="translate(0 0)">
            <path id="Trazado_46-2" data-name="Trazado 46" d="M950.389,5569.42h-8.431a1.321,1.321,0,1,1,0-2.642h8.431a1.321,1.321,0,1,1,0,2.642Z" transform="translate(-940.637 -5566.778)" fill="#fff" stroke="#fff" stroke-width="0.5"/>
          </g>
          <g id="Grupo_53-2" data-name="Grupo 53" transform="translate(0 6.78)">
            <path id="Trazado_47-2" data-name="Trazado 47" d="M963.018,5646.416H941.958a1.321,1.321,0,0,1,0-2.642h21.061a1.321,1.321,0,0,1,0,2.642Z" transform="translate(-940.637 -5643.774)" fill="#fff" stroke="#fff" stroke-width="0.5"/>
          </g>
          <g id="Grupo_54-2" data-name="Grupo 54" transform="translate(0 13.559)">
            <path id="Trazado_48-2" data-name="Trazado 48" d="M963.018,5723.413H941.958a1.321,1.321,0,1,1,0-2.642h21.061a1.321,1.321,0,1,1,0,2.642Z" transform="translate(-940.637 -5720.771)" fill="#fff" stroke="#fff" stroke-width="0.5"/>
          </g>
          <g id="Grupo_55-2" data-name="Grupo 55" transform="translate(0 20.339)">
            <path id="Trazado_49-2" data-name="Trazado 49" d="M963.018,5800.409H941.958a1.321,1.321,0,0,1,0-2.642h21.061a1.321,1.321,0,0,1,0,2.642Z" transform="translate(-940.637 -5797.767)" fill="#fff" stroke="#fff" stroke-width="0.5"/>
          </g>
        </g>
        <g id="Grupo_57-2" data-name="Grupo 57" transform="translate(864.319 5477.101)">
          <path id="Trazado_50-2" data-name="Trazado 50" d="M897.071,5515.874H868.709a4.394,4.394,0,0,1-4.39-4.39v-29.993a4.395,4.395,0,0,1,4.39-4.39h28.362a4.395,4.395,0,0,1,4.39,4.39v29.993A4.394,4.394,0,0,1,897.071,5515.874Zm-28.362-36.131a1.75,1.75,0,0,0-1.748,1.749v29.993a1.751,1.751,0,0,0,1.748,1.749h28.362a1.751,1.751,0,0,0,1.748-1.749v-29.993a1.75,1.75,0,0,0-1.748-1.749Z" transform="translate(-864.319 -5477.101)" fill="#fff" stroke="#fff" stroke-width="0.5"/>
        </g>
      </g>
    </g>
    <g id="Grupo_10470" data-name="Grupo 10470" transform="translate(-161 -270)">
      <g id="Grupo_106" data-name="Grupo 106" transform="translate(286 856)">
        <g id="Grupo_101" data-name="Grupo 101">
          <g id="Grupo_94" data-name="Grupo 94" transform="translate(2.754 0)">
            <g id="Grupo_92" data-name="Grupo 92" transform="translate(20.943 4.562)">
              <path id="Trazado_78" data-name="Trazado 78" d="M2540.758,4443.951a.731.731,0,0,1-.73-.731v-5.355a10.848,10.848,0,0,0-2.268-6.675.73.73,0,0,1,1.157-.891,12.294,12.294,0,0,1,2.572,7.565v5.355A.731.731,0,0,1,2540.758,4443.951Z" transform="translate(-2537.609 -4430.015)" fill="#525f7f" stroke="#525f7f" stroke-width="1.5"/>
            </g>
            <g id="Grupo_93" data-name="Grupo 93">
              <path id="Trazado_79" data-name="Trazado 79" d="M2179.785,4370.692a.73.73,0,0,1-.73-.729v-5.636a12.413,12.413,0,0,1,19.351-10.292.73.73,0,1,1-.817,1.21,10.953,10.953,0,0,0-17.073,9.081v5.636A.73.73,0,0,1,2179.785,4370.692Z" transform="translate(-2179.055 -4351.915)" fill="#525f7f" stroke="#525f7f" stroke-width="1.5"/>
            </g>
          </g>
          <g id="Grupo_100" data-name="Grupo 100" transform="translate(0 16.559)">
            <g id="Grupo_95" data-name="Grupo 95">
              <path id="Trazado_80" data-name="Trazado 80" d="M2139.483,4648.518h-1.03a6.552,6.552,0,0,1-1.767-12.86.73.73,0,0,1,.393,1.406,5.091,5.091,0,0,0,1.374,9.994h1.03a.92.92,0,0,0,.919-.919V4637.8a.92.92,0,0,0-.919-.919.73.73,0,1,1,0-1.459,2.381,2.381,0,0,1,2.379,2.378v8.343A2.382,2.382,0,0,1,2139.483,4648.518Z" transform="translate(-2131.902 -4635.417)" fill="#525f7f" stroke="#525f7f" stroke-width="1.5"/>
            </g>
            <g id="Grupo_99" data-name="Grupo 99" transform="translate(15.336)">
              <g id="Grupo_96" data-name="Grupo 96" transform="translate(5.035)">
                <path id="Trazado_81" data-name="Trazado 81" d="M2484.073,4648.518h-1.03a2.382,2.382,0,0,1-2.379-2.379V4637.8a2.381,2.381,0,0,1,2.379-2.378h1.03a6.551,6.551,0,1,1,0,13.1Zm-1.03-11.642a.921.921,0,0,0-.919.919v8.343a.92.92,0,0,0,.919.919h1.03a5.091,5.091,0,0,0,0-10.181Z" transform="translate(-2480.663 -4635.417)" fill="#525f7f" stroke="#525f7f" stroke-width="1.5"/>
              </g>
              <g id="Grupo_97" data-name="Grupo 97" transform="translate(3.982 11.641)">
                <path id="Trazado_82" data-name="Trazado 82" d="M2463.372,4842.934a.73.73,0,0,1-.363-1.364,6.747,6.747,0,0,0,3.364-5.961v-.158a.73.73,0,0,1,1.46,0v.158a8.191,8.191,0,0,1-4.1,7.229A.726.726,0,0,1,2463.372,4842.934Z" transform="translate(-2462.641 -4834.721)" fill="#525f7f" stroke="#525f7f" stroke-width="1.5"/>
              </g>
              <g id="Grupo_98" data-name="Grupo 98" transform="translate(0 17.662)">
                <path id="Trazado_83" data-name="Trazado 83" d="M2396.442,4942.477a1.978,1.978,0,0,1-.818-3.78l1.6-.725a1.978,1.978,0,0,1,1.632,3.6h0l-1.6.724A1.961,1.961,0,0,1,2396.442,4942.477Zm2.111-1.566h0Z" transform="translate(-2394.463 -4937.797)" fill="#525f7f" stroke="#525f7f" stroke-width="1.5"/>
              </g>
            </g>
          </g>
        </g>
      </g>
    </g>
    <g id="Grupo_10473" data-name="Grupo 10473" transform="translate(-52 -270)">
      <g id="Grupo_106-2" data-name="Grupo 106" transform="translate(286 856)">
        <g id="Grupo_101-2" data-name="Grupo 101">
          <g id="Grupo_94-2" data-name="Grupo 94" transform="translate(2.754 0)">
            <g id="Grupo_92-2" data-name="Grupo 92" transform="translate(20.943 4.562)">
              <path id="Trazado_78-2" data-name="Trazado 78" d="M2540.758,4443.951a.731.731,0,0,1-.73-.731v-5.355a10.848,10.848,0,0,0-2.268-6.675.73.73,0,0,1,1.157-.891,12.294,12.294,0,0,1,2.572,7.565v5.355A.731.731,0,0,1,2540.758,4443.951Z" transform="translate(-2537.609 -4430.015)" fill="#fff" stroke="#fff" stroke-width="1.5"/>
            </g>
            <g id="Grupo_93-2" data-name="Grupo 93">
              <path id="Trazado_79-2" data-name="Trazado 79" d="M2179.785,4370.692a.73.73,0,0,1-.73-.729v-5.636a12.413,12.413,0,0,1,19.351-10.292.73.73,0,1,1-.817,1.21,10.953,10.953,0,0,0-17.073,9.081v5.636A.73.73,0,0,1,2179.785,4370.692Z" transform="translate(-2179.055 -4351.915)" fill="#fff" stroke="#fff" stroke-width="1.5"/>
            </g>
          </g>
          <g id="Grupo_100-2" data-name="Grupo 100" transform="translate(0 16.559)">
            <g id="Grupo_95-2" data-name="Grupo 95">
              <path id="Trazado_80-2" data-name="Trazado 80" d="M2139.483,4648.518h-1.03a6.552,6.552,0,0,1-1.767-12.86.73.73,0,0,1,.393,1.406,5.091,5.091,0,0,0,1.374,9.994h1.03a.92.92,0,0,0,.919-.919V4637.8a.92.92,0,0,0-.919-.919.73.73,0,1,1,0-1.459,2.381,2.381,0,0,1,2.379,2.378v8.343A2.382,2.382,0,0,1,2139.483,4648.518Z" transform="translate(-2131.902 -4635.417)" fill="#fff" stroke="#fff" stroke-width="1.5"/>
            </g>
            <g id="Grupo_99-2" data-name="Grupo 99" transform="translate(15.336)">
              <g id="Grupo_96-2" data-name="Grupo 96" transform="translate(5.035)">
                <path id="Trazado_81-2" data-name="Trazado 81" d="M2484.073,4648.518h-1.03a2.382,2.382,0,0,1-2.379-2.379V4637.8a2.381,2.381,0,0,1,2.379-2.378h1.03a6.551,6.551,0,1,1,0,13.1Zm-1.03-11.642a.921.921,0,0,0-.919.919v8.343a.92.92,0,0,0,.919.919h1.03a5.091,5.091,0,0,0,0-10.181Z" transform="translate(-2480.663 -4635.417)" fill="#fff" stroke="#fff" stroke-width="1.5"/>
              </g>
              <g id="Grupo_97-2" data-name="Grupo 97" transform="translate(3.982 11.641)">
                <path id="Trazado_82-2" data-name="Trazado 82" d="M2463.372,4842.934a.73.73,0,0,1-.363-1.364,6.747,6.747,0,0,0,3.364-5.961v-.158a.73.73,0,0,1,1.46,0v.158a8.191,8.191,0,0,1-4.1,7.229A.726.726,0,0,1,2463.372,4842.934Z" transform="translate(-2462.641 -4834.721)" fill="#fff" stroke="#fff" stroke-width="1.5"/>
              </g>
              <g id="Grupo_98-2" data-name="Grupo 98" transform="translate(0 17.662)">
                <path id="Trazado_83-2" data-name="Trazado 83" d="M2396.442,4942.477a1.978,1.978,0,0,1-.818-3.78l1.6-.725a1.978,1.978,0,0,1,1.632,3.6h0l-1.6.724A1.961,1.961,0,0,1,2396.442,4942.477Zm2.111-1.566h0Z" transform="translate(-2394.463 -4937.797)" fill="#fff" stroke="#fff" stroke-width="1.5"/>
              </g>
            </g>
          </g>
        </g>
      </g>
    </g>
    <g id="Grupo_10478" data-name="Grupo 10478" transform="translate(-845.143 -306.071)">
      <path id="Trazado_16" data-name="Trazado 16" d="M1382.614,388.3a6.39,6.39,0,0,1-1.244-3.774v-3.845a8.252,8.252,0,0,0-4.167-7.16c.01-.116.016-.232.016-.35a4.1,4.1,0,1,0-8.2,0c0,.118.006.235.017.351a8.251,8.251,0,0,0-4.166,7.16v3.845a6.388,6.388,0,0,1-1.245,3.774,2.426,2.426,0,0,0,1.95,3.868h15.093a2.425,2.425,0,0,0,1.95-3.868Zm-9.5-17.362a2.233,2.233,0,0,1,2.187,1.793,8.025,8.025,0,0,0-4.374,0A2.234,2.234,0,0,1,1373.118,370.942ZM1381.159,390a.54.54,0,0,1-.5.305h-15.093a.555.555,0,0,1-.446-.885,8.272,8.272,0,0,0,1.612-4.887v-3.845a6.382,6.382,0,0,1,12.763,0v3.845a8.277,8.277,0,0,0,1.61,4.887A.541.541,0,0,1,1381.159,390Z" fill="#fff" stroke="#fff" stroke-width="0.5"/>
      <path id="Trazado_17" data-name="Trazado 17" d="M1380.95,413.947a8.213,8.213,0,0,1-7.861,0,.935.935,0,0,0-.944,1.615,10.764,10.764,0,0,0,5.037,1.283,9.2,9.2,0,0,0,4.715-1.283.935.935,0,0,0-.946-1.613Z" transform="translate(-3.902 -20.45)" fill="#fff" stroke="#fff" stroke-width="0.5"/>
    </g>
    <g id="Grupo_10479" data-name="Grupo 10479" transform="translate(-465 22)">
      <path id="Trazado_56" data-name="Trazado 56" d="M1379.878,803.779l-3.513-3.513a8.644,8.644,0,1,0-1.134,1.134l3.513,3.513a.8.8,0,0,0,1.134-1.134Zm-15.151-4.052a7.046,7.046,0,1,1,9.965,0A7.054,7.054,0,0,1,1364.727,799.727Z" transform="translate(-613.499 -741.108)" fill="#3d3d71" stroke="#3d3d71" stroke-width="1"/>
    </g>
    <g id="Grupo_10480" data-name="Grupo 10480" transform="translate(-901.201 -1012.74)">
      <path id="Trazado_59" data-name="Trazado 59" d="M1385.3,1086.039l-1.83-.153a10.246,10.246,0,0,0-.49-1.183l1.186-1.4a2.084,2.084,0,0,0-.118-2.8l-1.608-1.608a2.06,2.06,0,0,0-2.8-.117l-1.4,1.186a10.4,10.4,0,0,0-1.183-.492l-.154-1.83a2.084,2.084,0,0,0-2.064-1.9h-2.273a2.085,2.085,0,0,0-2.064,1.9l-.153,1.83a10.255,10.255,0,0,0-1.183.492l-1.4-1.186a2.059,2.059,0,0,0-2.8.117l-1.608,1.608a2.081,2.081,0,0,0-.118,2.8l1.186,1.4a10.324,10.324,0,0,0-.49,1.183l-1.833.154a2.06,2.06,0,0,0-1.9,2.064v2.275a2.058,2.058,0,0,0,1.9,2.063l1.831.154a10.29,10.29,0,0,0,.49,1.183l-1.186,1.4a2.081,2.081,0,0,0,.118,2.8l1.608,1.608a2.056,2.056,0,0,0,2.8.117l1.4-1.186a10.119,10.119,0,0,0,1.183.491l.153,1.83a2.059,2.059,0,0,0,2.064,1.9h2.273a2.058,2.058,0,0,0,2.064-1.9l.154-1.83a10.079,10.079,0,0,0,1.183-.491l1.4,1.187a2.058,2.058,0,0,0,2.8-.118l1.607-1.608a2.083,2.083,0,0,0,.118-2.8l-1.186-1.4a10.291,10.291,0,0,0,.49-1.183l1.83-.154a2.083,2.083,0,0,0,1.9-2.063V1088.1A2.061,2.061,0,0,0,1385.3,1086.039Zm-.285,4.236-1.8.152a2.066,2.066,0,0,0-1.787,1.406h0a8.072,8.072,0,0,1-.429,1.034,2.069,2.069,0,0,0,.269,2.26l1.169,1.384-1.463,1.463-1.383-1.169a2.067,2.067,0,0,0-2.261-.269,7.962,7.962,0,0,1-1.036.43,2.067,2.067,0,0,0-1.405,1.786l-.151,1.8h-2.069l-.151-1.8a2.068,2.068,0,0,0-1.405-1.786,7.97,7.97,0,0,1-1.036-.43,2.067,2.067,0,0,0-2.261.269l-1.384,1.169-1.463-1.463,1.168-1.384a2.068,2.068,0,0,0,.269-2.26,8.063,8.063,0,0,1-.429-1.035,2.066,2.066,0,0,0-1.787-1.406l-1.8-.152v-2.07l1.8-.151a2.069,2.069,0,0,0,1.788-1.407,7.969,7.969,0,0,1,.43-1.035,2.07,2.07,0,0,0-.27-2.26l-1.168-1.384,1.463-1.462,1.385,1.169a2.072,2.072,0,0,0,2.26.267,8.175,8.175,0,0,1,1.036-.43,2.067,2.067,0,0,0,1.406-1.787l.151-1.8h2.069l.151,1.8a2.067,2.067,0,0,0,1.406,1.788,8.061,8.061,0,0,1,1.034.429,2.069,2.069,0,0,0,2.262-.269l1.383-1.168,1.463,1.462-1.17,1.385a2.071,2.071,0,0,0-.268,2.258,8.143,8.143,0,0,1,.43,1.037,2.068,2.068,0,0,0,1.787,1.406l1.8.151Z" fill="#fff"/>
      <path id="Trazado_60" data-name="Trazado 60" d="M1378.776,1089.585a4.73,4.73,0,1,0,4.729,4.73A4.736,4.736,0,0,0,1378.776,1089.585Zm0,7.277a2.547,2.547,0,1,1,2.547-2.547A2.55,2.55,0,0,1,1378.776,1096.862Z" transform="translate(-5.075 -5.075)" fill="#fff"/>
    </g>
    <g id="Grupo_10481" data-name="Grupo 10481" transform="translate(-368.992 -131.841)">
      <path id="Trazado_61" data-name="Trazado 61" d="M782.023,222.841a14,14,0,1,1,14.031-14.03A14.047,14.047,0,0,1,782.023,222.841Zm0-25.416a11.416,11.416,0,1,0,11.447,11.386A11.43,11.43,0,0,0,782.023,197.425Z" transform="translate(0)" fill="#fff"/>
      <path id="Trazado_62" data-name="Trazado 62" d="M808.669,226.674a1.292,1.292,0,0,1-.774-2.326,2.664,2.664,0,1,0-4.3-2.091,1.292,1.292,0,0,1-2.583,0,5.258,5.258,0,1,1,8.435,4.159A1.282,1.282,0,0,1,808.669,226.674Z" transform="translate(-24.243 -16.272)" fill="#fff"/>
      <path id="Trazado_63" data-name="Trazado 63" d="M817.227,248.549a1.291,1.291,0,0,1-1.292-1.292,3.387,3.387,0,0,1,2.345-3.01,4.248,4.248,0,0,0,.6-.324,1.292,1.292,0,1,1,1.5,2.1,6.837,6.837,0,0,1-.967.543c-.82.4-.9.507-.9.689A1.291,1.291,0,0,1,817.227,248.549Z" transform="translate(-35.204 -35.863)" fill="#fff"/>
      <path id="Trazado_64" data-name="Trazado 64" d="M817.227,268.757a1.291,1.291,0,0,1-1.292-1.292v-.781a1.292,1.292,0,1,1,2.583,0v.781A1.291,1.291,0,0,1,817.227,268.757Z" transform="translate(-35.204 -51.804)" fill="#fff"/>
    </g>
    <g id="calendar" transform="translate(24 -445)">
      <g id="Grupo_72" data-name="Grupo 72" transform="translate(318 510.8)">
        <g id="Grupo_71" data-name="Grupo 71">
          <path id="Trazado_65" data-name="Trazado 65" d="M340.4,514.8v19.6H320.8V514.8h19.6m0-2.8H320.8a2.8,2.8,0,0,0-2.8,2.8v19.6a2.8,2.8,0,0,0,2.8,2.8h19.6a2.8,2.8,0,0,0,2.8-2.8V514.8a2.8,2.8,0,0,0-2.8-2.8Z" transform="translate(-318 -512)" fill="#fff"/>
        </g>
      </g>
      <g id="Grupo_73" data-name="Grupo 73" transform="translate(319.4 516.4)">
        <rect id="Rectángulo_3350" data-name="Rectángulo 3350" width="23" height="3" transform="translate(-0.4 -0.4)" fill="#fff"/>
      </g>
      <g id="Grupo_74" data-name="Grupo 74" transform="translate(322.2 508)">
        <path id="Trazado_66" data-name="Trazado 66" d="M325.4,513.6a1.4,1.4,0,0,1-1.4-1.4v-2.8a1.4,1.4,0,0,1,2.8,0v2.8A1.4,1.4,0,0,1,325.4,513.6Z" transform="translate(-324 -508)" fill="#fff"/>
      </g>
      <g id="Grupo_75" data-name="Grupo 75" transform="translate(336.2 508)">
        <path id="Trazado_67" data-name="Trazado 67" d="M345.4,513.6a1.4,1.4,0,0,1-1.4-1.4v-2.8a1.4,1.4,0,0,1,2.8,0v2.8A1.4,1.4,0,0,1,345.4,513.6Z" transform="translate(-344 -508)" fill="#fff"/>
      </g>
      <g id="Grupo_76" data-name="Grupo 76" transform="translate(327.1 521.3)">
        <path id="Trazado_68" data-name="Trazado 68" d="M334.15,536.1a1.05,1.05,0,0,1-1.05-1.05,9.126,9.126,0,0,1,1.918-5.95H332.05a1.05,1.05,0,0,1,0-2.1h5.6a1.05,1.05,0,0,1,.621,1.9,6.913,6.913,0,0,0-3.071,6.153A1.05,1.05,0,0,1,334.15,536.1Z" transform="translate(-331 -527)" fill="#fff"/>
      </g>
    </g>
  </g>
</svg>
