<svg xmlns="http://www.w3.org/2000/svg" xmlns:xlink="http://www.w3.org/1999/xlink" width="2048" height="888" viewBox="0 0 2048 888">
  <defs>
    <clipPath id="clip-sprite_popUps">
      <rect width="2048" height="888"/>
    </clipPath>
  </defs>
  <g id="sprite_popUps" clip-path="url(#clip-sprite_popUps)">
    <g id="Group_11470" data-name="Group 11470" transform="translate(-1503.308 -624.731)">
      <path id="Path_3035" data-name="Path 3035" d="M1678.914,860.462h-7.773a8.5,8.5,0,0,1-7.67-4.879l-14.2-28.493-14.226,28.541a8.483,8.483,0,0,1-7.647,4.831h-7.774a4.258,4.258,0,0,1-4.235-4.217,7.493,7.493,0,0,1,5.709-7.335l.455-.114,15.012-37.45v-12.3h4.235v13.115l-.153.378-15.967,39.838-2.556.637a3.268,3.268,0,0,0-2.5,3.191l7.774.017a4.255,4.255,0,0,0,3.836-2.438l18.037-36.19,18.014,36.142a4.275,4.275,0,0,0,3.859,2.486h7.773a3.292,3.292,0,0,0-2.5-3.21l-2.552-.635-16.12-40.217v-23.7h4.235v22.885l15.012,37.45.451.111a7.525,7.525,0,0,1,5.714,7.381A4.236,4.236,0,0,1,1678.914,860.462Z" transform="translate(-26.9 -45.731)" fill="#3db5ff"/>
      <path id="Path_3036" data-name="Path 3036" d="M1661.214,763.279l-2.717-3.251,11.184-9.343a2.079,2.079,0,0,0,.763-1.6,2.1,2.1,0,0,0-.4-1.221l-8.886-12.385a8.01,8.01,0,0,0-6.5-3.336h-9.732a12.551,12.551,0,0,1-9.984-4.986l-11.525-15.33a2.091,2.091,0,0,0-1.683-.86,2.119,2.119,0,0,0-2.118,2.118,2.086,2.086,0,0,0,.432,1.257l20.744,27.684v13.411h-4.235v-12l-19.9-26.553a6.276,6.276,0,0,1-1.28-3.8,6.359,6.359,0,0,1,6.353-6.353,6.292,6.292,0,0,1,5.073,2.554l11.521,15.328a8.3,8.3,0,0,0,6.6,3.295h9.732a12.247,12.247,0,0,1,9.939,5.1l8.893,12.391a6.3,6.3,0,0,1-1.092,8.529Z" transform="translate(-26.901)" fill="#3db5ff"/>
      <rect id="Rectangle_3396" data-name="Rectangle 3396" width="4.233" height="15.319" transform="matrix(0.928, -0.372, 0.372, 0.928, 1643.08, 775.695)" fill="#3db5ff"/>
      <rect id="Rectangle_3397" data-name="Rectangle 3397" width="4.233" height="3.718" transform="translate(1651.581 796.908) rotate(-21.843)" fill="#3db5ff"/>
      <rect id="Rectangle_3398" data-name="Rectangle 3398" width="4.234" height="4.359" transform="translate(1596.038 742.408) rotate(-36.843)" fill="#3db5ff"/>
      <rect id="Rectangle_3399" data-name="Rectangle 3399" width="4.234" height="17.519" transform="matrix(0.8, -0.6, 0.6, 0.8, 1581.62, 723.167)" fill="#3db5ff"/>
      <rect id="Rectangle_3400" data-name="Rectangle 3400" width="97.412" height="4.235" transform="translate(1567.308 810.496)" fill="#3db5ff"/>
      <rect id="Rectangle_3401" data-name="Rectangle 3401" width="4.235" height="4.235" transform="translate(1668.955 810.496)" fill="#3db5ff"/>
      <path id="Path_3037" data-name="Path 3037" d="M1678.857,732.143a10.6,10.6,0,0,1-10.588-10.588v-4.236a10.588,10.588,0,0,1,21.177,0v4.236A10.6,10.6,0,0,1,1678.857,732.143Zm0-21.177a6.36,6.36,0,0,0-6.353,6.353v4.236a6.353,6.353,0,1,0,12.706,0v-4.236A6.36,6.36,0,0,0,1678.857,710.966Z" transform="translate(-56.491)" fill="#3db5ff"/>
      <g id="Group_11417" data-name="Group 11417" transform="translate(1571.543 757.554)">
        <path id="Path_3038" data-name="Path 3038" d="M1584.335,865.785a7.412,7.412,0,1,1,7.412-7.412A7.421,7.421,0,0,1,1584.335,865.785Zm0-10.588a3.176,3.176,0,1,0,3.177,3.176A3.18,3.18,0,0,0,1584.335,855.2Z" transform="translate(-1576.923 -838.256)" fill="#3db5ff"/>
        <rect id="Rectangle_3402" data-name="Rectangle 3402" width="4.235" height="20.118" transform="translate(10.588 0)" fill="#3db5ff"/>
        <path id="Path_3039" data-name="Path 3039" d="M1613.668,834.821h-4.235c0-2.019-1.224-3.036-3.387-4.659-2.265-1.7-5.083-3.811-5.083-8.047h4.235c0,2.019,1.224,3.036,3.387,4.659C1610.849,828.472,1613.668,830.586,1613.668,834.821Z" transform="translate(-1590.374 -822.115)" fill="#3db5ff"/>
      </g>
      <g id="Group_11418" data-name="Group 11418" transform="translate(1649.896 710.966)">
        <path id="Path_3040" data-name="Path 3040" d="M1762.22,760.016a7.412,7.412,0,1,1,7.412-7.412A7.42,7.42,0,0,1,1762.22,760.016Zm0-10.588a3.176,3.176,0,1,0,3.176,3.176A3.18,3.18,0,0,0,1762.22,749.428Z" transform="translate(-1754.808 -732.486)" fill="#3db5ff"/>
        <rect id="Rectangle_3403" data-name="Rectangle 3403" width="4.235" height="20.118" transform="translate(10.588 0)" fill="#3db5ff"/>
        <path id="Path_3041" data-name="Path 3041" d="M1791.552,729.052h-4.235c0-2.018-1.224-3.036-3.387-4.659-2.264-1.7-5.083-3.811-5.083-8.047h4.236c0,2.018,1.224,3.036,3.387,4.659C1788.733,722.7,1791.552,724.817,1791.552,729.052Z" transform="translate(-1768.258 -716.346)" fill="#3db5ff"/>
      </g>
    </g>
    <g id="Group_11471" data-name="Group 11471" transform="translate(269 73)">
      <path id="Path_3010" data-name="Path 3010" d="M353.263,255.632A10.275,10.275,0,0,1,343,245.368v-4.105a10.263,10.263,0,0,1,20.526,0v4.105A10.275,10.275,0,0,1,353.263,255.632Zm0-20.526a6.165,6.165,0,0,0-6.158,6.158v4.105a6.158,6.158,0,1,0,12.316,0v-4.105A6.165,6.165,0,0,0,353.263,235.105Z" transform="translate(-299.895 -231)" fill="#3db5ff"/>
      <path id="Path_3011" data-name="Path 3011" d="M379.105,262H375v4.105h4.105V262Z" transform="translate(-266.21 -198.368)" fill="#3db5ff"/>
      <path id="Path_3012" data-name="Path 3012" d="M377.105,267H373v4.105h4.105V267Z" transform="translate(-268.316 -193.105)" fill="#3db5ff"/>
      <path id="Path_3013" data-name="Path 3013" d="M372.105,255H368v4.105h4.105V255Z" transform="translate(-273.579 -205.737)" fill="#3db5ff"/>
      <path id="Path_3014" data-name="Path 3014" d="M365.105,262H361v4.105h4.105V262Z" transform="translate(-280.947 -198.368)" fill="#3db5ff"/>
      <path id="Path_3015" data-name="Path 3015" d="M367.105,257H363v4.105h4.105V257Z" transform="translate(-278.842 -203.632)" fill="#3db5ff"/>
      <path id="Path_3016" data-name="Path 3016" d="M377.105,257H373v4.105h4.105V257Z" transform="translate(-268.316 -203.632)" fill="#3db5ff"/>
      <path id="Path_3017" data-name="Path 3017" d="M367.105,267H363v4.105h4.105V267Z" transform="translate(-278.842 -193.105)" fill="#3db5ff"/>
      <path id="Path_3018" data-name="Path 3018" d="M372.105,269H368v4.105h4.105V269Z" transform="translate(-273.579 -191)" fill="#3db5ff"/>
      <path id="Path_3019" data-name="Path 3019" d="M341.105,240H337v4.105h4.105V240Z" transform="translate(-306.211 -221.526)" fill="#3db5ff"/>
      <path id="Path_3020" data-name="Path 3020" d="M339.105,245H335v4.105h4.105V245Z" transform="translate(-308.316 -216.263)" fill="#3db5ff"/>
      <path id="Path_3021" data-name="Path 3021" d="M334.105,233H330v4.105h4.105V233Z" transform="translate(-313.579 -228.895)" fill="#3db5ff"/>
      <path id="Path_3022" data-name="Path 3022" d="M327.105,240H323v4.105h4.105V240Z" transform="translate(-320.947 -221.526)" fill="#3db5ff"/>
      <path id="Path_3023" data-name="Path 3023" d="M329.105,235H325v4.105h4.105V235Z" transform="translate(-318.842 -226.789)" fill="#3db5ff"/>
      <path id="Path_3024" data-name="Path 3024" d="M339.105,235H335v4.105h4.105V235Z" transform="translate(-308.316 -226.789)" fill="#3db5ff"/>
      <path id="Path_3025" data-name="Path 3025" d="M329.105,245H325v4.105h4.105V245Z" transform="translate(-318.842 -216.263)" fill="#3db5ff"/>
      <path id="Path_3026" data-name="Path 3026" d="M334.105,247H330v4.105h4.105V247Z" transform="translate(-313.579 -214.158)" fill="#3db5ff"/>
      <path id="Path_3027" data-name="Path 3027" d="M332.105,264H328v4.105h4.105V264Z" transform="translate(-315.684 -196.263)" fill="#3db5ff"/>
      <path id="Path_3028" data-name="Path 3028" d="M336.105,266H332v4.105h4.105V266Z" transform="translate(-311.474 -194.158)" fill="#3db5ff"/>
      <path id="Path_3029" data-name="Path 3029" d="M326.105,270H322v4.105h4.105V270Z" transform="translate(-322 -189.947)" fill="#3db5ff"/>
      <path id="Path_3030" data-name="Path 3030" d="M332.105,276H328v4.105h4.105V276Z" transform="translate(-315.684 -183.632)" fill="#3db5ff"/>
      <path id="Path_3031" data-name="Path 3031" d="M328.105,274H324v4.105h4.105V274Z" transform="translate(-319.895 -185.737)" fill="#3db5ff"/>
      <path id="Path_3032" data-name="Path 3032" d="M328.105,266H324v4.105h4.105V266Z" transform="translate(-319.895 -194.158)" fill="#3db5ff"/>
      <rect id="Rectangle_3392" data-name="Rectangle 3392" width="4.294" height="9.661" transform="translate(67.812 98.752)" fill="#3db5ff"/>
      <rect id="Rectangle_3393" data-name="Rectangle 3393" width="4.294" height="4.294" transform="translate(67.812 112.706)" fill="#3db5ff"/>
      <rect id="Rectangle_3394" data-name="Rectangle 3394" width="4.294" height="9.661" transform="translate(69.959 4.294)" fill="#3db5ff"/>
      <rect id="Rectangle_3395" data-name="Rectangle 3395" width="4.294" height="4.294" transform="translate(69.959 18.248)" fill="#3db5ff"/>
      <path id="Path_3033" data-name="Path 3033" d="M336.108,313.579a3.961,3.961,0,0,1-2.927-1.09c-1.207-1.217-1.195-2.906-1.18-4.54l0-7.712a7.227,7.227,0,0,1,5-6.846l15.522-6.546V252h4.105v37.571L338.3,297.289a3.1,3.1,0,0,0-2.19,2.948l0,7.743a13.457,13.457,0,0,0,.039,1.494c2-.021,4.072-1.817,4.081-4.811l0-1.492,22.388-7.158a3.11,3.11,0,0,0,2.227-2.96V276.632h4.105v16.421a7.231,7.231,0,0,1-5.117,6.883l-19.623,6.271A8.347,8.347,0,0,1,336.108,313.579Z" transform="translate(-311.476 -208.895)" fill="#3db5ff"/>
      <path id="Path_3034" data-name="Path 3034" d="M371.329,340.632a4.429,4.429,0,0,1-3.114-1.314l-6.357-6.536a7.113,7.113,0,0,1-2.069-5.06,7.707,7.707,0,0,1,.817-3.362l7.153-15.384,3.723,1.732L364.3,326.156a3.6,3.6,0,0,0-.4,1.566,3.053,3.053,0,0,0,.887,2.178l6.359,6.54a.329.329,0,0,0,.189.086,2.716,2.716,0,0,0,.776-2.053,7.907,7.907,0,0,0-1.455-4.551l-.8-1.039,9.348-17.938a10.043,10.043,0,0,0,.846-2.262,9.916,9.916,0,0,0,.273-2.311V262.638l15.807-.041a3.033,3.033,0,0,0,2.426-1.864l6.162-14.362a3.081,3.081,0,0,0-5.682-2.383l-5.351,12.486H365.418a17.841,17.841,0,0,0-11.653,4.337l-19.59,16.936a3.078,3.078,0,0,0,2.01,5.411,3.031,3.031,0,0,0,1.946-.694L356.438,267.5l2.6,3.18-18.305,14.964a7.184,7.184,0,0,1-9.243-11l19.594-16.938a21.925,21.925,0,0,1,14.336-5.337h25.553l4.282-9.988a7.186,7.186,0,0,1,13.237,5.6l-6.164,14.364a7.159,7.159,0,0,1-6.033,4.354l-11.872.035v39.642a13.9,13.9,0,0,1-.39,3.274,14.046,14.046,0,0,1-1.19,3.194l-8.188,15.709a12.21,12.21,0,0,1,1.558,5.924C376.211,337.433,374.345,340.632,371.329,340.632Z" transform="translate(-314.632 -223.632)" fill="#3db5ff"/>
    </g>
    <g id="Group_12726" data-name="Group 12726" transform="translate(476.435 73)">
      <rect id="Rectangle_3585" data-name="Rectangle 3585" width="4.277" height="36.357" transform="translate(80.894 80.643)" fill="#3db5ff"/>
      <path id="Path_7088" data-name="Path 7088" d="M1722.327,1719.013a8.527,8.527,0,0,1-6.621-3.138l-7.865-9.6,3.309-2.71,7.865,9.605a4.278,4.278,0,0,0,6.461.188l17.391-18.9a3.208,3.208,0,0,0-4.63-4.44l-13.877,13.877-9.22-19.687a14.962,14.962,0,0,0-9.444-8.044l-3.023-.864a8.54,8.54,0,0,1-6.2-7.874l-.173-3.86,4.273-.192.174,3.868a4.272,4.272,0,0,0,3.1,3.945l3.023.864a19.237,19.237,0,0,1,12.143,10.343l6.634,14.165,9.565-9.565a7.485,7.485,0,0,1,10.8,10.36l-17.391,18.9A8.58,8.58,0,0,1,1722.327,1719.013Z" transform="translate(-1626.463 -1614.845)" fill="#3db5ff"/>
      <path id="Path_7089" data-name="Path 7089" d="M1578.548,1719.013a8.577,8.577,0,0,1-6.3-2.764l-17.391-18.9a7.485,7.485,0,0,1,10.8-10.359l9.565,9.565,6.634-14.165a19.238,19.238,0,0,1,12.143-10.343l3.022-.864a4.272,4.272,0,0,0,3.1-3.937l.174-3.877,4.272.192-.174,3.869a8.536,8.536,0,0,1-6.2,7.865l-3.022.864a14.964,14.964,0,0,0-9.445,8.045l-9.22,19.687-13.877-13.877a3.208,3.208,0,0,0-4.631,4.439l17.392,18.9a4.278,4.278,0,0,0,6.461-.188l7.865-9.605,3.31,2.71-7.865,9.605A8.53,8.53,0,0,1,1578.548,1719.013Z" transform="translate(-1546.843 -1614.845)" fill="#3db5ff"/>
      <rect id="Rectangle_3586" data-name="Rectangle 3586" width="4.277" height="36.357" transform="translate(42.399 80.643)" fill="#3db5ff"/>
      <path id="Path_7090" data-name="Path 7090" d="M1666.678,1743.07a4.247,4.247,0,0,1-3.025-1.253l-8.554-8.554a4.278,4.278,0,0,1,3.024-7.3h17.109a4.277,4.277,0,0,1,3.024,7.3l-8.555,8.555A4.249,4.249,0,0,1,1666.678,1743.07Zm8.556-12.833-17.11,0,8.554,8.555,8.555-8.555Z" transform="translate(-1602.894 -1649.595)" fill="#3db5ff"/>
      <path id="Path_7091" data-name="Path 7091" d="M1662.075,1697.911a4.238,4.238,0,0,1-2.571-.859l-13.948-10.493,2.572-3.418,13.949,10.494,13.947-10.494,2.572,3.418-13.949,10.494A4.24,4.24,0,0,1,1662.075,1697.911Z" transform="translate(-1598.29 -1625.823)" fill="#3db5ff"/>
      <path id="Path_7092" data-name="Path 7092" d="M1658.671,1627.7a19.269,19.269,0,0,1-19.248-19.247v-10.693a6.423,6.423,0,0,1,6.416-6.416H1671.5a6.423,6.423,0,0,1,6.416,6.416v10.693A19.269,19.269,0,0,1,1658.671,1627.7Zm-12.832-32.079a2.141,2.141,0,0,0-2.139,2.139v10.693a14.971,14.971,0,0,0,29.941,0v-10.693a2.142,2.142,0,0,0-2.139-2.139Z" transform="translate(-1594.886 -1574.861)" fill="#3db5ff"/>
      <rect id="Rectangle_3587" data-name="Rectangle 3587" width="6.416" height="4.277" transform="translate(53.092 25.039)" fill="#3db5ff"/>
      <rect id="Rectangle_3588" data-name="Rectangle 3588" width="6.416" height="4.277" transform="translate(68.062 25.039)" fill="#3db5ff"/>
      <path id="Path_7093" data-name="Path 7093" d="M1576.393,1655.725v-4.277c6.307,0,8.555-5.524,8.555-10.693a28.133,28.133,0,0,0-1.954-10.518,34.6,34.6,0,0,1-2.254-10.466c-3.766,1.044-4.347,3.479-4.347,6.013a8.4,8.4,0,0,0,.977,3.963,10.25,10.25,0,0,1,1.161,4.592c0,2.347-1.715,4.74-3.308,5.97l-2.613-3.386a4.372,4.372,0,0,0,1.645-2.584,6.241,6.241,0,0,0-.78-2.825,12.553,12.553,0,0,1-1.359-5.729c0-4.375,1.817-9.78,10.472-10.682l2.36-.246v2.373a30.675,30.675,0,0,0,2.088,11.608,32.125,32.125,0,0,1,2.189,11.917C1589.224,1649.71,1584.067,1655.725,1576.393,1655.725Z" transform="translate(-1557.519 -1587.914)" fill="#3db5ff"/>
      <path id="Path_7094" data-name="Path 7094" d="M1547.376,1670.249c-2.708-1.964-6.309-5.054-6.309-9.193a10.9,10.9,0,0,1,1.307-5.347,6.224,6.224,0,0,0,.831-3.208,11.045,11.045,0,0,0-1.836-5.319l-2.067-3.462,4.026.231c7.008.4,14.848,5.972,14.848,12.828a14.4,14.4,0,0,1-3.333,9.41l-3.187-2.853a10.177,10.177,0,0,0,2.242-6.557c0-3.046-3.1-6.226-6.979-7.713a11.505,11.505,0,0,1,.564,3.436,10.422,10.422,0,0,1-1.262,5.08,6.741,6.741,0,0,0-.876,3.475c0,1.617,1.528,3.545,4.543,5.73Z" transform="translate(-1539.302 -1603.938)" fill="#3db5ff"/>
      <path id="Path_7095" data-name="Path 7095" d="M1767.64,1655.725c-7.675,0-12.832-6.016-12.832-14.97a32.125,32.125,0,0,1,2.189-11.917,30.677,30.677,0,0,0,2.088-11.608v-2.373l2.36.246c8.655.9,10.472,6.306,10.472,10.682a12.548,12.548,0,0,1-1.359,5.729,6.244,6.244,0,0,0-.779,2.825,4.374,4.374,0,0,0,1.644,2.584l-2.614,3.385c-1.593-1.23-3.307-3.623-3.307-5.969a10.249,10.249,0,0,1,1.161-4.592,8.4,8.4,0,0,0,.977-3.963c0-2.534-.581-4.968-4.347-6.013a34.618,34.618,0,0,1-2.254,10.466,28.134,28.134,0,0,0-1.954,10.518c0,5.169,2.247,10.693,8.555,10.693Z" transform="translate(-1658.944 -1587.914)" fill="#3db5ff"/>
      <path id="Path_7096" data-name="Path 7096" d="M1794.445,1670.256l-2.51-3.464c3.019-2.189,4.551-4.118,4.551-5.736a6.742,6.742,0,0,0-.876-3.475,10.419,10.419,0,0,1-1.262-5.08,11.506,11.506,0,0,1,.564-3.436c-3.883,1.488-6.979,4.668-6.979,7.713a10.2,10.2,0,0,0,2.32,6.643l-3.129,2.917a14.475,14.475,0,0,1-3.469-9.559c0-6.856,7.839-12.427,14.848-12.828l4.026-.231-2.068,3.462a11.041,11.041,0,0,0-1.836,5.319,6.223,6.223,0,0,0,.831,3.208,10.9,10.9,0,0,1,1.307,5.347C1800.763,1665.2,1797.157,1668.29,1794.445,1670.256Z" transform="translate(-1674.958 -1603.938)" fill="#3db5ff"/>
      <path id="Path_7097" data-name="Path 7097" d="M1676.954,1635.125l-14.459-5.7a2.164,2.164,0,0,0-1.567,0l-14.46,5.7-1.568-3.979,14.459-5.7a6.463,6.463,0,0,1,4.7,0l14.458,5.7Z" transform="translate(1725.495 1666.583) rotate(180)" fill="#3db5ff"/>
      <path id="Path_7098" data-name="Path 7098" d="M1675.249,1577.188h-4.277a12.847,12.847,0,0,0-12.832-12.832h-8.554a18.089,18.089,0,0,1-9.9-3.091,8.033,8.033,0,0,0-.792,3.091c0,3.531,1.115,5.863,3.41,7.13l-2.068,3.745c-2.564-1.415-5.619-4.451-5.619-10.874a15.1,15.1,0,0,1,2-6.622c.117-.24.233-.479.346-.713l1.3-2.734,2.141,2.141a14.354,14.354,0,0,0,9.181,3.651h8.554A17.128,17.128,0,0,1,1675.249,1577.188Z" transform="translate(-1592.217 -1554.287)" fill="#3db5ff"/>
    </g>
    <g id="Group_12725" data-name="Group 12725" transform="translate(713.863 73.001)">
      <path id="Path_7063" data-name="Path 7063" d="M1278.143,387.276h-4.117V352.81a30.958,30.958,0,0,1,3.859-14.949l22.52-40.7a3.045,3.045,0,0,0,.383-1.491,3.089,3.089,0,0,0-5.638-1.743l-19.4,28.3a17.058,17.058,0,0,1-14.073,7.414h-2.059V318.143h4.118v7.21a12.945,12.945,0,0,0,8.619-5.461l19.4-28.3a7.206,7.206,0,0,1,12.253,7.556l-22.52,40.7a26.829,26.829,0,0,0-3.345,12.956Z" transform="translate(-1197.856 -270.535)" fill="#c12948"/>
      <rect id="Rectangle_3581" data-name="Rectangle 3581" width="4.117" height="37.056" transform="translate(34.997 79.686)" fill="#c12948"/>
      <rect id="Rectangle_3582" data-name="Rectangle 3582" width="30.761" height="4.117" transform="translate(15.807 115.138) rotate(-63.117)" fill="#c12948"/>
      <path id="Path_7064" data-name="Path 7064" d="M1127.687,425,1124,423.163l18.4-36.8a33.039,33.039,0,0,1,15.831-15.256l11.486-5.221v-8.107h4.117v10.759l-13.9,6.318a28.909,28.909,0,0,0-13.853,13.349Z" transform="translate(-1120.313 -310.171)" fill="#c12948"/>
      <path id="Path_7065" data-name="Path 7065" d="M1225.259,318.651a18.548,18.548,0,0,1-18.528-18.527V289.83a6.183,6.183,0,0,1,6.176-6.176h24.7a6.183,6.183,0,0,1,6.176,6.176v10.293A18.549,18.549,0,0,1,1225.259,318.651Zm-12.352-30.88a2.061,2.061,0,0,0-2.059,2.059v10.293a14.411,14.411,0,0,0,28.821,0V289.83a2.061,2.061,0,0,0-2.059-2.059Z" transform="translate(-1167.616 -267.786)" fill="#c12948"/>
      <path id="Path_7066" data-name="Path 7066" d="M1226.685,325.621a10.113,10.113,0,0,1-4.854-1.245l-12.606-6.922,1.981-3.609,12.606,6.922a6.065,6.065,0,0,0,5.744,0l12.607-6.922,1.981,3.609-12.606,6.922A10.11,10.11,0,0,1,1226.685,325.621Z" transform="translate(-1169.042 -285.049)" fill="#c12948"/>
      <rect id="Rectangle_3583" data-name="Rectangle 3583" width="6.176" height="4.117" transform="translate(47.349 24.102)" fill="#c12948"/>
      <rect id="Rectangle_3584" data-name="Rectangle 3584" width="6.176" height="4.117" transform="translate(61.76 24.102)" fill="#c12948"/>
      <path id="Path_7067" data-name="Path 7067" d="M1123.222,422.858c-3.955-3.164-7.837-12.258-7.837-18.36,0-5.382,3.594-6.838,6.481-8.008a10.777,10.777,0,0,0,4.323-2.575c1.54-1.754,3.2-4.938,4.958-8.31,4.7-9.009,10.544-20.222,21.294-20.222,4.44,0,11.005,2.322,15.279,4.31l-1.737,3.733c-4.2-1.954-10.017-3.926-13.542-3.926-8.253,0-13.46,9.986-17.643,18.009-1.958,3.754-3.648,7-5.514,9.122a14.332,14.332,0,0,1-5.872,3.675c-2.905,1.177-3.91,1.71-3.91,4.192,0,5.208,3.544,12.947,6.291,15.145Z" transform="translate(-1115.385 -314.519)" fill="#c12948"/>
      <path id="Path_7068" data-name="Path 7068" d="M1178.315,501.15a41.047,41.047,0,0,1-14.079-2.471l1.408-3.869a36.941,36.941,0,0,0,12.671,2.223c.635,0,1.31-.018,1.954-.051l.209,4.112C1179.766,501.131,1179.017,501.15,1178.315,501.15Z" transform="translate(-1143.318 -388.525)" fill="#c12948"/>
      <path id="Path_7069" data-name="Path 7069" d="M1236.255,436.8a4.14,4.14,0,0,1-3.532-2l-6.176-10.293a4.118,4.118,0,0,1,3.532-6.234h12.352a4.118,4.118,0,0,1,3.533,6.233l-6.177,10.294A4.139,4.139,0,0,1,1236.255,436.8Zm6.178-14.413-12.354,0,6.178,10.293Z" transform="translate(-1178.613 -344.759)" fill="#c12948"/>
      <path id="Path_7070" data-name="Path 7070" d="M1239.466,386.518a5.894,5.894,0,0,1-4.914-2.63l-2.975-4.463,3.425-2.284,2.975,4.463a1.789,1.789,0,0,0,2.976,0l2.975-4.463,3.426,2.284-2.975,4.463A5.894,5.894,0,0,1,1239.466,386.518Z" transform="translate(-1181.823 -321.242)" fill="#c12948"/>
      <path id="Path_7071" data-name="Path 7071" d="M1383.925,461.538h-4.117v4.117h4.117v-4.117Z" transform="translate(-1266.582 -369.501)" fill="#c12948"/>
      <path id="Path_7072" data-name="Path 7072" d="M1374.309,485.577h-4.117v4.117h4.117v-4.117Z" transform="translate(-1261.084 -383.246)" fill="#c12948"/>
      <path id="Path_7073" data-name="Path 7073" d="M1350.271,427.885h-4.117V432h4.117v-4.117Z" transform="translate(-1247.339 -350.257)" fill="#c12948"/>
      <path id="Path_7074" data-name="Path 7074" d="M1316.617,461.538H1312.5v4.117h4.117v-4.117Z" transform="translate(-1228.095 -369.501)" fill="#c12948"/>
      <path id="Path_7075" data-name="Path 7075" d="M1326.233,437.5h-4.118v4.117h4.118V437.5Z" transform="translate(-1233.593 -355.755)" fill="#c12948"/>
      <path id="Path_7076" data-name="Path 7076" d="M1374.309,437.5h-4.117v4.117h4.117V437.5Z" transform="translate(-1261.084 -355.755)" fill="#c12948"/>
      <path id="Path_7077" data-name="Path 7077" d="M1326.233,485.577h-4.118v4.117h4.118v-4.117Z" transform="translate(-1233.593 -383.246)" fill="#c12948"/>
      <path id="Path_7078" data-name="Path 7078" d="M1350.271,495.192h-4.117v4.117h4.117v-4.117Z" transform="translate(-1247.339 -388.744)" fill="#c12948"/>
      <path id="Path_7079" data-name="Path 7079" d="M1241.038,268.641h-4.118a12.366,12.366,0,0,0-12.352-12.352h-8.235a17.419,17.419,0,0,1-9.531-2.975,7.737,7.737,0,0,0-.762,2.975c0,3.4,1.073,5.644,3.282,6.863l-1.99,3.6c-2.468-1.362-5.409-4.285-5.409-10.467a14.538,14.538,0,0,1,1.927-6.375c.113-.231.224-.46.332-.686l1.253-2.63,2.061,2.06a13.819,13.819,0,0,0,8.838,3.514h8.235A16.488,16.488,0,0,1,1241.038,268.641Z" transform="translate(-1164.867 -246.597)" fill="#c12948"/>
      <path id="Path_7080" data-name="Path 7080" d="M1153.156,283.654h-4.117v4.117h4.117v-4.117Z" transform="translate(-1134.628 -267.786)" fill="#c12948"/>
      <path id="Path_7081" data-name="Path 7081" d="M1172.386,293.269h-4.117v4.117h4.117v-4.117Z" transform="translate(-1145.624 -273.284)" fill="#c12948"/>
      <path id="Path_7082" data-name="Path 7082" d="M1124.309,312.5h-4.117v4.117h4.117V312.5Z" transform="translate(-1118.134 -284.28)" fill="#c12948"/>
      <path id="Path_7083" data-name="Path 7083" d="M1182,312.5h-4.117v4.117H1182V312.5Z" transform="translate(-1151.122 -284.28)" fill="#c12948"/>
      <path id="Path_7084" data-name="Path 7084" d="M1153.156,341.346h-4.117v4.117h4.117v-4.117Z" transform="translate(-1134.628 -300.775)" fill="#c12948"/>
      <path id="Path_7085" data-name="Path 7085" d="M1133.925,331.731h-4.117v4.117h4.117v-4.117Z" transform="translate(-1123.632 -295.277)" fill="#c12948"/>
      <path id="Path_7086" data-name="Path 7086" d="M1172.386,331.731h-4.117v4.117h4.117v-4.117Z" transform="translate(-1145.624 -295.277)" fill="#c12948"/>
      <path id="Path_7087" data-name="Path 7087" d="M1133.925,293.269h-4.117v4.117h4.117v-4.117Z" transform="translate(-1123.632 -273.284)" fill="#c12948"/>
    </g>
    <g id="Group_14534" data-name="Group 14534" transform="translate(-504.425 -372.793)">
      <g id="Group_14532" data-name="Group 14532" transform="translate(568.425 630.793)" opacity="0.3" style="mix-blend-mode: multiply;isolation: isolate">
        <path id="Path_8127" data-name="Path 8127" d="M763.177,365H682.408a5.623,5.623,0,1,0,0,11.246h80.769a8.44,8.44,0,0,1,8.44,8.44v11.235a8.44,8.44,0,0,1-8.44,8.44H725.4a2.659,2.659,0,0,0-.411.084,2.578,2.578,0,0,0-.416-.084h-70.49a2.815,2.815,0,0,0-1.49.427L624.884,422.1a2.821,2.821,0,0,1-4.313-2.4l.011-12.517a2.82,2.82,0,0,0-2.817-2.823H606.5a8.44,8.44,0,0,1-8.44-8.44V384.686a8.44,8.44,0,0,1,8.44-8.44h35.554a5.623,5.623,0,0,0,0-11.246H606.5a19.69,19.69,0,0,0-19.687,19.686v11.235A19.69,19.69,0,0,0,606.5,415.607h.005a2.82,2.82,0,0,1,2.817,2.823l-.011,10.965a8.69,8.69,0,0,0,13.287,7.383l33.21-20.743a2.817,2.817,0,0,1,1.5-.427h67.269a2.568,2.568,0,0,0,.416-.084,2.647,2.647,0,0,0,.411.084h37.775a19.69,19.69,0,0,0,19.687-19.686V384.686A19.69,19.69,0,0,0,763.177,365Z" transform="translate(-586.816 -128.833)" fill="#cad0ee"/>
        <ellipse id="Ellipse_1926" data-name="Ellipse 1926" cx="5.623" cy="5.623" rx="5.623" ry="5.623" transform="translate(64.601 0)" fill="#cad0ee"/>
        <ellipse id="Ellipse_1927" data-name="Ellipse 1927" cx="5.623" cy="5.623" rx="5.623" ry="5.623" transform="translate(110.113 214.47)" fill="#cad0ee"/>
        <ellipse id="Ellipse_1928" data-name="Ellipse 1928" cx="5.623" cy="5.623" rx="5.623" ry="5.623" transform="translate(69.011 236.167)" fill="#cad0ee"/>
        <path id="Path_8128" data-name="Path 8128" d="M818.412,347.023H609.331a22.49,22.49,0,0,0-22.492,22.492V414.5a22.493,22.493,0,0,0,22.492,22.492h74.163a5.623,5.623,0,0,0,0-11.246H609.331A11.247,11.247,0,0,1,598.085,414.5V369.515a11.243,11.243,0,0,1,11.246-11.246H818.412a11.243,11.243,0,0,1,11.246,11.246l-.045,47.79a8.441,8.441,0,0,1-8.44,8.446H809.916a2.82,2.82,0,0,0-2.823,2.817l.011,12.523a2.816,2.816,0,0,1-4.312,2.39l-27.711-17.3a2.8,2.8,0,0,0-1.49-.427l-50.579-.1a5.623,5.623,0,1,0,0,11.246l47.363.1a2.811,2.811,0,0,1,1.49.427l33.193,20.732a8.685,8.685,0,0,0,13.3-7.366l-.005-10.976A2.811,2.811,0,0,1,821.173,437a19.691,19.691,0,0,0,19.686-19.692v-5.966l.045-41.824A22.489,22.489,0,0,0,818.412,347.023Z" transform="translate(-586.709 -211.941)" fill="#cad0ee"/>
        <path id="Path_8129" data-name="Path 8129" d="M606.5,424.215h.005a2.82,2.82,0,0,1,2.817,2.823L609.314,438a8.69,8.69,0,0,0,13.287,7.383l33.21-20.744a2.817,2.817,0,0,1,1.5-.427H789.195a22.493,22.493,0,0,0,22.492-22.492V360.106c.006-.09.051-.174.051-.27V345.363A22.357,22.357,0,0,0,789.381,323h-112.6a5.623,5.623,0,0,0,0,11.246h112.41a11.246,11.246,0,0,1,11.246,11.246v56.23a11.25,11.25,0,0,1-11.246,11.246H654.085a2.815,2.815,0,0,0-1.49.427L624.884,430.7a2.822,2.822,0,0,1-4.313-2.4l.011-12.517a2.82,2.82,0,0,0-2.817-2.823H606.5a8.44,8.44,0,0,1-8.44-8.44V342.686a8.44,8.44,0,0,1,8.44-8.44H638.4a5.623,5.623,0,0,0,0-11.246H606.5a19.69,19.69,0,0,0-19.687,19.686v61.842A19.69,19.69,0,0,0,606.5,424.215Z" transform="translate(-586.816 -323)" fill="#cad0ee"/>
      </g>
      <g id="Group_14533" data-name="Group 14533" transform="translate(598.72 686.325)">
        <path id="Path_8119" data-name="Path 8119" d="M835.9,371.073l-.052.02c-.112-.28-.181-.572-.313-.849a13.109,13.109,0,0,0-7.775-6.732L773.95,345.729a13.751,13.751,0,0,0-12.825,2.326V336.148A14.144,14.144,0,0,0,746.98,322H696.308a14.147,14.147,0,0,0-14.148,14.148v40.8a14.147,14.147,0,0,0,14.148,14.148h.066a4.255,4.255,0,0,1,2.316.684l18,11.618a5.34,5.34,0,0,0,8.242-4.488v-3.537a4.277,4.277,0,0,1,4.277-4.277h14.22l-5.11,14.082a3.224,3.224,0,0,0-1.569.47L714.816,419.81A32.25,32.25,0,0,0,702.8,433.889l-26.772,60.687a3.286,3.286,0,0,0,1.681,4.34h0a3.289,3.289,0,0,0,4.336-1.681c18.953-5.542,24.64-7.475,26.44-7.442v.007h.033a43.629,43.629,0,0,0,18-5.024,13.154,13.154,0,0,0,7.452,6.284l53.817,17.783a13.658,13.658,0,0,0,4.3.694A13.393,13.393,0,0,0,804.72,500.9l37.91-104.469C843.675,393.545,843.626,390.383,835.9,371.073Z" transform="translate(-675.742 -322)" fill="#f9fafe"/>
        <g id="Group_14531" data-name="Group 14531" transform="translate(0)">
          <path id="Path_8117" data-name="Path 8117" d="M703.983,372.58a3.29,3.29,0,0,0,3.29-3.29V366h-3.29a3.29,3.29,0,0,0,0,6.58Z" transform="translate(-618.6 -221.233)" fill="#6868f4"/>
          <path id="Path_8118" data-name="Path 8118" d="M722.175,342.451a16.451,16.451,0,1,0-32.9,0c0,6.962-2.346,9.69-4.534,11.693a6.406,6.406,0,0,0-2.046,4.758,6.635,6.635,0,0,0,2.751,5.35c4.524,3.336,8.268,4.521,20.281,4.521s15.757-1.184,20.287-4.527a6.616,6.616,0,0,0,2.744-5.343,6.4,6.4,0,0,0-2.037-4.751C724.521,352.141,722.175,349.413,722.175,342.451Zm-16.451,19.741c-11.427,0-13.572-1.168-16.553-3.185,3.109-2.843,6.682-7.3,6.682-16.556a9.871,9.871,0,0,1,19.741,0c0,9.259,3.573,13.713,6.5,16.507C719.3,361.024,717.154,362.192,705.724,362.192Z" transform="translate(-659.823 -312.839)" fill="#6868f4"/>
          <path id="Path_8119-2" data-name="Path 8119" d="M835.9,371.073l-.052.02c-.112-.28-.181-.572-.313-.849a13.109,13.109,0,0,0-7.775-6.732L773.95,345.729a13.751,13.751,0,0,0-12.825,2.326V336.148A14.144,14.144,0,0,0,746.98,322H696.308a14.147,14.147,0,0,0-14.148,14.148v40.8a14.147,14.147,0,0,0,14.148,14.148h.066a4.255,4.255,0,0,1,2.316.684l18,11.618a5.34,5.34,0,0,0,8.242-4.488v-3.537a4.277,4.277,0,0,1,4.277-4.277h14.22l-5.11,14.082a3.224,3.224,0,0,0-1.569.47L714.816,419.81A32.25,32.25,0,0,0,702.8,433.889l-26.772,60.687a3.286,3.286,0,0,0,1.681,4.34h0a3.289,3.289,0,0,0,4.336-1.681l26.782-60.7a25.635,25.635,0,0,1,9.548-11.187l16.5-10.654-10.562,29.1-3.711,2.148a3.29,3.29,0,0,0-1.165,4.508h0a3.293,3.293,0,0,0,4.508,1.165l.174-.1,0,0,5.547-3.214,7.854-4.54.03-.03L759.342,431.1a3.3,3.3,0,0,1,5.074,2.767,2.888,2.888,0,0,1-.744,2.116L746.395,451.04a23.389,23.389,0,0,0-6.248,8.663c-9.529,23.1-30.773,23.508-31.675,23.515v.017a3.279,3.279,0,0,0,.01,6.557v.007h.033a41.38,41.38,0,0,0,18-5.024,13.154,13.154,0,0,0,7.452,6.284l53.817,17.783a13.658,13.658,0,0,0,4.3.694A13.393,13.393,0,0,0,804.72,500.9l37.91-104.469a12.49,12.49,0,0,0-.145-8.9ZM722.63,384.513a4.277,4.277,0,0,0-4.277,4.277,4.273,4.273,0,0,1-6.593,3.59L700.632,385.2a4.256,4.256,0,0,0-2.316-.684h-2.007a7.568,7.568,0,0,1-7.567-7.567v-40.8a7.569,7.569,0,0,1,7.567-7.567H746.98a7.566,7.566,0,0,1,7.564,7.567v40.8a7.566,7.566,0,0,1-7.564,7.567Zm45.365,56.426a9.391,9.391,0,0,0,2.994-7.5,9.872,9.872,0,0,0-14.947-8.031L733.175,438.66l17.451-48.1a14.114,14.114,0,0,0,10.5-13.615V361.63l2.076-5.718a6.9,6.9,0,0,1,8.686-3.939L825.7,369.76a6.571,6.571,0,0,1,3.919,3.356,5.884,5.884,0,0,1,.243,4.623l-32.247,88.874-42.831-14.154Zm-21.761,21.271a16.6,16.6,0,0,1,2.948-4.675L795.369,472.8l-3.418,9.41a6.905,6.905,0,0,1-8.683,3.939l-42.5-14.046A49.15,49.15,0,0,0,746.234,462.211Zm-10.2,22.6a6.574,6.574,0,0,1-4.017-3.613,41.055,41.055,0,0,0,4.2-3.675l44.99,14.868a13.655,13.655,0,0,0,4.3.694,13.3,13.3,0,0,0,1.773-.135l3.981,9.953a7.368,7.368,0,0,1-1.411-.306ZM836.44,394.19,798.531,498.659a6.142,6.142,0,0,1-1.125,1.889l-3.994-9.982a12.815,12.815,0,0,0,4.728-6.113L834.3,384.793l2.07,5.179A5.832,5.832,0,0,1,836.44,394.19Z" transform="translate(-675.742 -322)" fill="#6868f4"/>
          <path id="Path_8120" data-name="Path 8120" d="M709.294,367.448l28.082,9.278a3.584,3.584,0,0,0,4.494-2.181l9.176-25.288a3.581,3.581,0,0,0-2.244-4.623l-28.081-9.278a3.583,3.583,0,0,0-4.495,2.178l-9.176,25.288A3.583,3.583,0,0,0,709.294,367.448Zm6.252-8.752,4.685-12.911a3.581,3.581,0,0,1,4.494-2.178l15.582,5.149a3.586,3.586,0,0,1,2.244,4.626l-4.685,12.911a3.584,3.584,0,0,1-4.494,2.181l-15.582-5.152A3.583,3.583,0,0,1,715.545,358.7Z" transform="translate(-604.539 -291.83)" fill="#6868f4"/>
          <path id="Path_8121" data-name="Path 8121" d="M703.063,351.648l25.66,8.479a3.292,3.292,0,0,0,4.156-2.093h0a3.291,3.291,0,0,0-2.092-4.156l-25.66-8.479a3.29,3.29,0,1,0-2.063,6.248Z" transform="translate(-618.345 -268.792)" fill="#6868f4"/>
          <path id="Path_8122" data-name="Path 8122" d="M716.726,349.3a2.772,2.772,0,0,0-3.5,1.76l-.326.984a2.772,2.772,0,0,0,5.264,1.741l.322-.984A2.769,2.769,0,0,0,716.726,349.3Z" transform="translate(-590.966 -259.808)" fill="#6868f4"/>
          <path id="Path_8123" data-name="Path 8123" d="M735.524,363.119a3.284,3.284,0,0,0-2.089-4.152L703.869,349.2a3.288,3.288,0,0,0-2.063,6.245l29.565,9.768A3.284,3.284,0,0,0,735.524,363.119Z" transform="translate(-621.217 -260.094)" fill="#6868f4"/>
          <path id="Path_8124" data-name="Path 8124" d="M742.854,339h-9.87a3.29,3.29,0,0,0,0,6.58h9.87a3.29,3.29,0,0,0,0-6.58Z" transform="translate(-552.185 -283.067)" fill="#6868f4"/>
          <path id="Path_8125" data-name="Path 8125" d="M722.983,342.451a3.289,3.289,0,0,0,3.29-3.29V329.29a3.29,3.29,0,1,0-6.58,0v9.871A3.291,3.291,0,0,0,722.983,342.451Z" transform="translate(-575.087 -312.839)" fill="#6868f4"/>
          <path id="Path_8126" data-name="Path 8126" d="M738.318,331.068a3.287,3.287,0,0,0-4.652,0l-5.906,5.9a3.29,3.29,0,1,0,4.652,4.652l5.906-5.9A3.293,3.293,0,0,0,738.318,331.068Z" transform="translate(-558.82 -303.443)" fill="#6868f4"/>
        </g>
      </g>
    </g>
  </g>
</svg>
